<svg width="32" height="32" viewBox="0 0 32 32" fill="none" xmlns="http://www.w3.org/2000/svg">
<g opacity="0.5">
<path d="M11.3335 19C11.3335 21.56 13.4402 23.6667 16.0002 23.6667C18.5602 23.6667 20.6668 21.56 20.6668 19" stroke="#EFE8DD" stroke-width="1.5" stroke-miterlimit="10" stroke-linecap="round" stroke-linejoin="round"/>
<path d="M11.7461 2.66699L6.91943 7.50699" stroke="#EFE8DD" stroke-width="1.5" stroke-miterlimit="10" stroke-linecap="round" stroke-linejoin="round"/>
<path d="M20.2529 2.66699L25.0796 7.50699" stroke="#EFE8DD" stroke-width="1.5" stroke-miterlimit="10" stroke-linecap="round" stroke-linejoin="round"/>
</g>
<path d="M2.6665 10.4665C2.6665 7.9998 3.9865 7.7998 5.6265 7.7998H26.3732C28.0132 7.7998 29.3332 7.9998 29.3332 10.4665C29.3332 13.3331 28.0132 13.1331 26.3732 13.1331H5.6265C3.9865 13.1331 2.6665 13.3331 2.6665 10.4665Z" stroke="#EFE8DD" stroke-width="1.5"/>
<path d="M4.6665 13.333L6.5465 24.853C6.97317 27.4397 7.99984 29.333 11.8132 29.333H19.8532C23.9998 29.333 24.6132 27.5197 25.0932 25.013L27.3332 13.333" stroke="#EFE8DD" stroke-width="1.5" stroke-linecap="round"/>
</svg>
