<svg width="32" height="32" viewBox="0 0 32 32" fill="none" xmlns="http://www.w3.org/2000/svg">
<path opacity="0.5" d="M16.2134 14.4937C16.0801 14.4803 15.9201 14.4803 15.7734 14.4937C12.6001 14.387 10.0801 11.787 10.0801 8.58699C10.0801 5.32033 12.7201 2.66699 16.0001 2.66699C19.2667 2.66699 21.9201 5.32033 21.9201 8.58699C21.9067 11.787 19.3867 14.387 16.2134 14.4937Z" stroke="#EFE8DD" stroke-width="1.5" stroke-linecap="round" stroke-linejoin="round"/>
<path d="M9.54646 19.413C6.3198 21.573 6.3198 25.093 9.54646 27.2397C13.2131 29.693 19.2265 29.693 22.8931 27.2397C26.1198 25.0797 26.1198 21.5597 22.8931 19.413C19.2398 16.973 13.2265 16.973 9.54646 19.413Z" stroke="#EFE8DD" stroke-width="1.5" stroke-linecap="round" stroke-linejoin="round"/>
</svg>
